<svg width="26" height="20" viewBox="0 0 26 20" fill="none" xmlns="http://www.w3.org/2000/svg">
<path d="M15.4545 4.54546H21.8182V6.36364H15.4545V4.54546ZM15.4545 9.09091H21.8182V10.9091H15.4545V9.09091ZM15.4545 13.6364H21.8182V15.4545H15.4545V13.6364ZM3.63635 4.54546H9.99999V6.36364H3.63635V4.54546ZM3.63635 9.09091H9.99999V10.9091H3.63635V9.09091ZM3.63635 13.6364H9.99999V15.4545H3.63635V13.6364Z" fill="white"/>
<path d="M23.6364 0H1.81818C1.33612 0.000481342 0.873936 0.192194 0.533065 0.533065C0.192194 0.873936 0.000481342 1.33612 0 1.81818V18.1818C0.000481342 18.6639 0.192194 19.1261 0.533065 19.4669C0.873936 19.8078 1.33612 19.9995 1.81818 20H23.6364C24.1184 19.9995 24.5806 19.8078 24.9215 19.4669C25.2624 19.1261 25.4541 18.6639 25.4545 18.1818V1.81818C25.4541 1.33612 25.2624 0.873936 24.9215 0.533065C24.5806 0.192194 24.1184 0.000481342 23.6364 0ZM1.81818 1.81818H11.8182V18.1818H1.81818V1.81818ZM13.6364 18.1818V1.81818H23.6364V18.1818H13.6364Z" fill="white"/>
</svg>
