<svg width="26" height="22" viewBox="0 0 26 22" fill="none" xmlns="http://www.w3.org/2000/svg">
<path d="M15.4549 4.93347H21.8185V6.75165H15.4549V4.93347ZM15.4549 9.47893H21.8185V11.2971H15.4549V9.47893ZM15.4549 14.0244H21.8185V15.8426H15.4549V14.0244ZM3.63672 4.93347H10.0004V6.75165H3.63672V4.93347ZM3.63672 9.47893H10.0004V11.2971H3.63672V9.47893ZM3.63672 14.0244H10.0004V15.8426H3.63672V14.0244Z" fill="black"/>
<path d="M23.6364 0.203247H1.81818C1.33612 0.203728 0.873936 0.395441 0.533065 0.736312C0.192194 1.07718 0.000481342 1.53936 0 2.02143V18.3851C0.000481342 18.8671 0.192194 19.3293 0.533065 19.6702C0.873936 20.0111 1.33612 20.2028 1.81818 20.2032H23.6364C24.1184 20.2028 24.5806 20.0111 24.9215 19.6702C25.2624 19.3293 25.4541 18.8671 25.4545 18.3851V2.02143C25.4541 1.53936 25.2624 1.07718 24.9215 0.736312C24.5806 0.395441 24.1184 0.203728 23.6364 0.203247ZM1.81818 2.02143H11.8182V18.3851H1.81818V2.02143ZM13.6364 18.3851V2.02143H23.6364V18.3851H13.6364Z" fill="black"/>
</svg>
