<svg width="32" height="32" viewBox="0 0 32 32" fill="none" xmlns="http://www.w3.org/2000/svg">
<path d="M7.99998 26.6667C9.46665 26.6667 10.6666 25.4667 10.6666 24V14.6667C10.6666 13.2 9.46665 12 7.99998 12C6.53331 12 5.33331 13.2 5.33331 14.6667V24C5.33331 25.4667 6.53331 26.6667 7.99998 26.6667ZM21.3333 20V24C21.3333 25.4667 22.5333 26.6667 24 26.6667C25.4666 26.6667 26.6666 25.4667 26.6666 24V20C26.6666 18.5333 25.4666 17.3333 24 17.3333C22.5333 17.3333 21.3333 18.5333 21.3333 20ZM16 26.6667C17.4666 26.6667 18.6666 25.4667 18.6666 24V7.99999C18.6666 6.53333 17.4666 5.33333 16 5.33333C14.5333 5.33333 13.3333 6.53333 13.3333 7.99999V24C13.3333 25.4667 14.5333 26.6667 16 26.6667Z" fill="#F8F8F8"/>
</svg>
