<svg width="32" height="32" viewBox="0 0 32 32" fill="none" xmlns="http://www.w3.org/2000/svg">
<path d="M8.00016 26.6667C9.46683 26.6667 10.6668 25.4667 10.6668 24V14.6667C10.6668 13.2 9.46683 12 8.00016 12C6.5335 12 5.3335 13.2 5.3335 14.6667V24C5.3335 25.4667 6.5335 26.6667 8.00016 26.6667ZM21.3335 20V24C21.3335 25.4667 22.5335 26.6667 24.0002 26.6667C25.4668 26.6667 26.6668 25.4667 26.6668 24V20C26.6668 18.5333 25.4668 17.3333 24.0002 17.3333C22.5335 17.3333 21.3335 18.5333 21.3335 20ZM16.0002 26.6667C17.4668 26.6667 18.6668 25.4667 18.6668 24V7.99999C18.6668 6.53333 17.4668 5.33333 16.0002 5.33333C14.5335 5.33333 13.3335 6.53333 13.3335 7.99999V24C13.3335 25.4667 14.5335 26.6667 16.0002 26.6667Z" fill="black"/>
</svg>
