<svg width="19" height="19" viewBox="0 0 19 19" fill="none" xmlns="http://www.w3.org/2000/svg">
<path d="M16.2083 0.875C16.7167 0.875 17.2042 1.07693 17.5636 1.43638C17.9231 1.79582 18.125 2.28333 18.125 2.79167V16.2083C18.125 16.7167 17.9231 17.2042 17.5636 17.5636C17.2042 17.9231 16.7167 18.125 16.2083 18.125H2.79167C2.28333 18.125 1.79582 17.9231 1.43638 17.5636C1.07693 17.2042 0.875 16.7167 0.875 16.2083V2.79167C0.875 2.28333 1.07693 1.79582 1.43638 1.43638C1.79582 1.07693 2.28333 0.875 2.79167 0.875H16.2083ZM14.0042 6.96042C14.215 6.75917 14.215 6.42375 14.0042 6.2225L12.7775 4.99583C12.7299 4.94591 12.6726 4.90616 12.6092 4.87901C12.5458 4.85185 12.4775 4.83785 12.4085 4.83785C12.3396 4.83785 12.2713 4.85185 12.2079 4.87901C12.1444 4.90616 12.0872 4.94591 12.0396 4.99583L11.0812 5.95417L13.0458 7.91875L14.0042 6.96042ZM4.70833 12.3175V14.2917H6.6825L12.49 8.48417L10.5158 6.51L4.70833 12.3175Z" fill="#FCDB66"/>
</svg>
