<svg width="32" height="32" viewBox="0 0 32 32" fill="none" xmlns="http://www.w3.org/2000/svg">
<path d="M17.6091 3.99772C17.1527 3.63156 16.5851 3.43201 16 3.43201C15.4149 3.43201 14.8472 3.63156 14.3908 3.99772L5.5337 11.1029C5.23337 11.3438 4.99098 11.6491 4.82443 11.9963C4.65788 12.3434 4.57141 12.7235 4.57141 13.1086V26C4.57141 26.682 4.84233 27.336 5.32457 27.8183C5.8068 28.3005 6.46085 28.5714 7.14284 28.5714H9.99998C10.682 28.5714 11.336 28.3005 11.8183 27.8183C12.3005 27.336 12.5714 26.682 12.5714 26V19.7143C12.5714 18.9257 13.2114 18.2857 14 18.2857H18C18.7886 18.2857 19.4286 18.9257 19.4286 19.7143V26C19.4286 26.682 19.6995 27.336 20.1817 27.8183C20.6639 28.3005 21.318 28.5714 22 28.5714H24.8571C25.5391 28.5714 26.1932 28.3005 26.6754 27.8183C27.1576 27.336 27.4286 26.682 27.4286 26V13.1086C27.4286 12.7235 27.3421 12.3434 27.1755 11.9963C27.009 11.6491 26.7666 11.3438 26.4663 11.1029L17.6091 3.99772Z" fill="#161616"/>
</svg>
