<svg width="32" height="32" viewBox="0 0 32 32" fill="none" xmlns="http://www.w3.org/2000/svg">
<path d="M17.6092 3.99772C17.1529 3.63156 16.5852 3.43201 16.0001 3.43201C15.415 3.43201 14.8474 3.63156 14.391 3.99772L5.53382 11.1029C5.23349 11.3438 4.99111 11.6491 4.82455 11.9963C4.658 12.3434 4.57153 12.7235 4.57153 13.1086V26C4.57153 26.682 4.84245 27.336 5.32469 27.8183C5.80692 28.3005 6.46098 28.5714 7.14296 28.5714H10.0001C10.6821 28.5714 11.3361 28.3005 11.8184 27.8183C12.3006 27.336 12.5715 26.682 12.5715 26V19.7143C12.5715 18.9257 13.2115 18.2857 14.0001 18.2857H18.0001C18.7887 18.2857 19.4287 18.9257 19.4287 19.7143V26C19.4287 26.682 19.6996 27.336 20.1818 27.8183C20.6641 28.3005 21.3181 28.5714 22.0001 28.5714H24.8572C25.5392 28.5714 26.1933 28.3005 26.6755 27.8183C27.1578 27.336 27.4287 26.682 27.4287 26V13.1086C27.4287 12.7235 27.3422 12.3434 27.1757 11.9963C27.0091 11.6491 26.7667 11.3438 26.4664 11.1029L17.6092 3.99772Z" fill="white"/>
</svg>
