<svg width="48" height="48" viewBox="0 0 48 48" fill="none" xmlns="http://www.w3.org/2000/svg">
<path fill-rule="evenodd" clip-rule="evenodd" d="M24.039 6C19.522 6 15.407 7.492 12.972 8.711C12.752 8.821 12.547 8.929 12.356 9.033C11.978 9.239 11.656 9.431 11.4 9.6L14.17 13.678L15.474 14.197C20.57 16.768 27.404 16.768 32.501 14.197L33.981 13.429L36.6 9.6C36.0575 9.24606 35.4934 8.92643 34.911 8.643C32.488 7.437 28.471 6 24.04 6H24.039ZM17.597 10.616C16.6161 10.4325 15.6473 10.1893 14.696 9.888C16.977 8.875 20.376 7.8 24.039 7.8C26.576 7.8 28.975 8.316 30.959 8.97C28.634 9.297 26.153 9.852 23.789 10.535C21.929 11.073 19.755 11.015 17.597 10.616ZM33.557 15.68L33.311 15.804C27.705 18.632 20.269 18.632 14.663 15.804L14.43 15.686C6.00801 24.927 -0.421997 41.997 24.039 41.997C48.5 41.997 41.913 24.608 33.557 15.68ZM23 24C22.4696 24 21.9609 24.2107 21.5858 24.5858C21.2107 24.9609 21 25.4696 21 26C21 26.5304 21.2107 27.0391 21.5858 27.4142C21.9609 27.7893 22.4696 28 23 28V24ZM25 22V21H23V22C21.9391 22 20.9217 22.4214 20.1716 23.1716C19.4214 23.9217 19 24.9391 19 26C19 27.0609 19.4214 28.0783 20.1716 28.8284C20.9217 29.5786 21.9391 30 23 30V34C22.13 34 21.389 33.445 21.113 32.667C21.0721 32.5397 21.006 32.4219 20.9187 32.3206C20.8315 32.2193 20.7248 32.1365 20.605 32.0772C20.4852 32.0178 20.3547 31.9831 20.2212 31.9751C20.0877 31.967 19.954 31.9858 19.8279 32.0304C19.7018 32.0749 19.586 32.1443 19.4872 32.2344C19.3884 32.3245 19.3087 32.4335 19.2528 32.5549C19.1968 32.6764 19.1658 32.8078 19.1616 32.9415C19.1573 33.0751 19.1799 33.2082 19.228 33.333C19.5038 34.113 20.0147 34.7883 20.6902 35.2659C21.3657 35.7435 22.1727 36 23 36V37H25V36C26.0609 36 27.0783 35.5786 27.8284 34.8284C28.5786 34.0783 29 33.0609 29 32C29 30.9391 28.5786 29.9217 27.8284 29.1716C27.0783 28.4214 26.0609 28 25 28V24C25.87 24 26.611 24.555 26.887 25.333C26.928 25.4603 26.994 25.5781 27.0813 25.6794C27.1685 25.7807 27.2752 25.8635 27.395 25.9228C27.5149 25.9822 27.6454 26.0169 27.7788 26.0249C27.9123 26.033 28.046 26.0142 28.1721 25.9696C28.2982 25.9251 28.414 25.8557 28.5128 25.7656C28.6116 25.6755 28.6913 25.5665 28.7473 25.4451C28.8032 25.3236 28.8342 25.1922 28.8384 25.0585C28.8427 24.9249 28.8201 24.7918 28.772 24.667C28.4962 23.887 27.9853 23.2117 27.3098 22.7341C26.6343 22.2565 25.8273 22 25 22ZM25 30V34C25.5304 34 26.0391 33.7893 26.4142 33.4142C26.7893 33.0391 27 32.5304 27 32C27 31.4696 26.7893 30.9609 26.4142 30.5858C26.0391 30.2107 25.5304 30 25 30Z" fill="black"/>
</svg>
