<svg width="32" height="32" viewBox="0 0 32 32" fill="none" xmlns="http://www.w3.org/2000/svg">
<path fill-rule="evenodd" clip-rule="evenodd" d="M21.5 16C21.5 15.7348 21.3946 15.4804 21.2071 15.2929C21.0195 15.1054 20.7652 15 20.5 15H5.8693L8.48397 12.76C8.58378 12.6745 8.66577 12.5703 8.72528 12.4531C8.78479 12.336 8.82064 12.2083 8.8308 12.0773C8.84095 11.9463 8.8252 11.8146 8.78445 11.6897C8.7437 11.5648 8.67875 11.4491 8.5933 11.3493C8.50786 11.2495 8.40359 11.1675 8.28645 11.108C8.16932 11.0485 8.04161 11.0127 7.91061 11.0025C7.77962 10.9924 7.64791 11.0081 7.52301 11.0488C7.3981 11.0896 7.28244 11.1545 7.18264 11.24L2.51597 15.24C2.40619 15.3339 2.31805 15.4504 2.25762 15.5816C2.19719 15.7128 2.16589 15.8555 2.16589 16C2.16589 16.1444 2.19719 16.2872 2.25762 16.4184C2.31805 16.5496 2.40619 16.6661 2.51597 16.76L7.18264 20.76C7.3842 20.9326 7.64606 21.018 7.91061 20.9975C8.17517 20.977 8.42074 20.8522 8.5933 20.6507C8.76587 20.4491 8.8513 20.1872 8.8308 19.9227C8.81029 19.6581 8.68554 19.4126 8.48397 19.24L5.87064 17H20.5C20.7652 17 21.0195 16.8946 21.2071 16.7071C21.3946 16.5196 21.5 16.2652 21.5 16Z" fill="#F8F8F8"/>
<path d="M12.5 10.6667C12.5 11.6027 12.5 12.0707 12.7253 12.408C12.8224 12.553 12.947 12.6776 13.092 12.7747C13.4293 13 13.8973 13 14.8333 13H20.5C21.2956 13 22.0587 13.3161 22.6213 13.8787C23.1839 14.4413 23.5 15.2043 23.5 16C23.5 16.7956 23.1839 17.5587 22.6213 18.1213C22.0587 18.6839 21.2956 19 20.5 19H14.8333C13.8973 19 13.4293 19 13.092 19.224C12.9468 19.3214 12.8222 19.4465 12.7253 19.592C12.5 19.9293 12.5 20.3973 12.5 21.3333C12.5 25.104 12.5 26.9907 13.672 28.1613C14.8427 29.3333 16.728 29.3333 20.4987 29.3333H21.832C25.6053 29.3333 27.4893 29.3333 28.6613 28.1613C29.8333 26.9907 29.8333 25.104 29.8333 21.3333V10.6667C29.8333 6.89599 29.8333 5.00932 28.6613 3.83866C27.4893 2.66666 25.604 2.66666 21.8333 2.66666H20.5C16.728 2.66666 14.8427 2.66666 13.672 3.83866C12.5 5.00932 12.5 6.89599 12.5 10.6667Z" fill="#F8F8F8"/>
</svg>
