<svg width="30" height="30" viewBox="0 0 30 30" fill="none" xmlns="http://www.w3.org/2000/svg">
<path fill-rule="evenodd" clip-rule="evenodd" d="M15.065 1.5625H14.935C13.8112 1.5625 12.875 1.5625 12.1325 1.6625C11.3475 1.7675 10.6388 2 10.07 2.56875C9.5 3.13875 9.2675 3.8475 9.1625 4.63125C9.09125 5.165 9.07 6.43875 9.065 7.53125C6.5375 7.615 5.01875 7.91 3.965 8.965C2.5 10.4288 2.5 12.7863 2.5 17.5C2.5 22.2137 2.5 24.5712 3.965 26.035C5.42875 27.5 7.78625 27.5 12.5 27.5H17.5C22.2137 27.5 24.5712 27.5 26.035 26.035C27.5 24.5712 27.5 22.2137 27.5 17.5C27.5 12.7863 27.5 10.4288 26.035 8.965C24.9812 7.91 23.4625 7.615 20.935 7.5325C20.93 6.43875 20.91 5.165 20.8375 4.6325C20.7325 3.8475 20.5 3.13875 19.93 2.57C19.3612 2 18.6525 1.7675 17.8675 1.6625C17.125 1.5625 16.1875 1.5625 15.065 1.5625ZM19.06 7.5025C19.0538 6.44375 19.0362 5.305 18.98 4.88125C18.9013 4.305 18.7675 4.0575 18.605 3.895C18.4425 3.7325 18.195 3.59875 17.6175 3.52C17.015 3.44 16.205 3.4375 15 3.4375C13.795 3.4375 12.985 3.44 12.3812 3.52125C11.805 3.59875 11.5575 3.7325 11.395 3.89625C11.2325 4.05875 11.0988 4.305 11.02 4.88125C10.9637 5.30625 10.945 6.44375 10.94 7.5025C11.4288 7.5 11.95 7.5 12.5 7.5H17.5C18.0513 7.5 18.5713 7.5 19.06 7.5025ZM15 11.5625C15.2486 11.5625 15.4871 11.6613 15.6629 11.8371C15.8387 12.0129 15.9375 12.2514 15.9375 12.5V12.5125C17.2987 12.855 18.4375 13.9288 18.4375 15.4163C18.4375 15.6649 18.3387 15.9033 18.1629 16.0792C17.9871 16.255 17.7486 16.3538 17.5 16.3538C17.2514 16.3538 17.0129 16.255 16.8371 16.0792C16.6613 15.9033 16.5625 15.6649 16.5625 15.4163C16.5625 14.9363 16.03 14.2712 15 14.2712C13.97 14.2712 13.4375 14.9363 13.4375 15.4163C13.4375 15.8962 13.97 16.5625 15 16.5625C16.7312 16.5625 18.4375 17.7625 18.4375 19.5837C18.4375 21.0712 17.2987 22.1437 15.9375 22.4875V22.5C15.9375 22.7486 15.8387 22.9871 15.6629 23.1629C15.4871 23.3387 15.2486 23.4375 15 23.4375C14.7514 23.4375 14.5129 23.3387 14.3371 23.1629C14.1613 22.9871 14.0625 22.7486 14.0625 22.5V22.4875C12.7013 22.145 11.5625 21.0712 11.5625 19.5837C11.5625 19.3351 11.6613 19.0967 11.8371 18.9208C12.0129 18.745 12.2514 18.6462 12.5 18.6462C12.7486 18.6462 12.9871 18.745 13.1629 18.9208C13.3387 19.0967 13.4375 19.3351 13.4375 19.5837C13.4375 20.0637 13.97 20.7288 15 20.7288C16.03 20.7288 16.5625 20.0637 16.5625 19.5837C16.5625 19.1038 16.03 18.4375 15 18.4375C13.2688 18.4375 11.5625 17.2375 11.5625 15.4163C11.5625 13.9288 12.7013 12.855 14.0625 12.5125V12.5C14.0625 12.2514 14.1613 12.0129 14.3371 11.8371C14.5129 11.6613 14.7514 11.5625 15 11.5625Z" fill="#F8F8F8"/>
</svg>
