<svg width="32" height="32" viewBox="0 0 32 32" fill="none" xmlns="http://www.w3.org/2000/svg">
<path d="M16 16C17.8565 16 19.637 15.2625 20.9497 13.9497C22.2625 12.637 23 10.8565 23 9C23 7.14348 22.2625 5.36301 20.9497 4.05025C19.637 2.7375 17.8565 2 16 2C14.1435 2 12.363 2.7375 11.0503 4.05025C9.7375 5.36301 9 7.14348 9 9C9 10.8565 9.7375 12.637 11.0503 13.9497C12.363 15.2625 14.1435 16 16 16ZM7.5 18C6.57174 18 5.6815 18.3687 5.02513 19.0251C4.36875 19.6815 4 20.5717 4 21.5V22C4 24.393 5.523 26.417 7.685 27.793C9.859 29.177 12.802 30 16 30C19.198 30 22.14 29.177 24.315 27.793C26.477 26.417 28 24.393 28 22V21.5C28 20.5717 27.6313 19.6815 26.9749 19.0251C26.3185 18.3687 25.4283 18 24.5 18H7.5Z" fill="black"/>
</svg>
