<svg width="19" height="20" viewBox="0 0 19 20" fill="none" xmlns="http://www.w3.org/2000/svg">
<path d="M17.3125 0.936646H1.6875C1.2731 0.936646 0.875671 1.10127 0.582646 1.39429C0.28962 1.68732 0.125 2.08474 0.125 2.49915V18.1241C0.125 18.5385 0.28962 18.936 0.582646 19.229C0.875671 19.522 1.2731 19.6866 1.6875 19.6866H17.3125C17.7269 19.6866 18.1243 19.522 18.4174 19.229C18.7104 18.936 18.875 18.5385 18.875 18.1241V2.49915C18.875 2.08474 18.7104 1.68732 18.4174 1.39429C18.1243 1.10127 17.7269 0.936646 17.3125 0.936646ZM14.9688 11.0929H10.2812V15.7804C10.2812 15.9876 10.1989 16.1863 10.0524 16.3328C9.90591 16.4793 9.7072 16.5616 9.5 16.5616C9.2928 16.5616 9.09409 16.4793 8.94757 16.3328C8.80106 16.1863 8.71875 15.9876 8.71875 15.7804V11.0929H4.03125C3.82405 11.0929 3.62534 11.0106 3.47882 10.8641C3.33231 10.7176 3.25 10.5188 3.25 10.3116C3.25 10.1044 3.33231 9.90573 3.47882 9.75922C3.62534 9.61271 3.82405 9.5304 4.03125 9.5304H8.71875V4.8429C8.71875 4.6357 8.80106 4.43698 8.94757 4.29047C9.09409 4.14396 9.2928 4.06165 9.5 4.06165C9.7072 4.06165 9.90591 4.14396 10.0524 4.29047C10.1989 4.43698 10.2812 4.6357 10.2812 4.8429V9.5304H14.9688C15.176 9.5304 15.3747 9.61271 15.5212 9.75922C15.6677 9.90573 15.75 10.1044 15.75 10.3116C15.75 10.5188 15.6677 10.7176 15.5212 10.8641C15.3747 11.0106 15.176 11.0929 14.9688 11.0929Z" fill="#7ABADD"/>
</svg>
