<svg width="48" height="48" viewBox="0 0 48 48" fill="none" xmlns="http://www.w3.org/2000/svg">
<path d="M29.8345 4.05498C29.5849 3.84577 29.2973 3.68941 28.9884 3.59495C28.6795 3.50049 28.3554 3.46981 28.0349 3.50469C27.7143 3.53956 27.4037 3.6393 27.121 3.79813C26.8383 3.95696 26.5891 4.17172 26.3879 4.42998L19.3289 13.5H22.4489L28.2916 5.98998L30.1684 7.56248L25.4641 13.5H28.6036L32.0575 9.13998L36.2451 12.6475L35.5187 13.5H36.25C36.9769 13.4992 37.6998 13.6096 38.395 13.8275C38.6605 13.3166 38.745 12.7269 38.6338 12.1593C38.5227 11.5916 38.2229 11.0812 37.7856 10.715L29.8345 4.05498ZM14.3125 14.75C14.3125 14.4185 14.4409 14.1005 14.6695 13.8661C14.898 13.6317 15.208 13.5 15.5312 13.5H16.8914L18.8292 11H15.5312C14.5616 11 13.6316 11.3951 12.9459 12.0983C12.2602 12.8016 11.875 13.7554 11.875 14.75V29.75C11.875 31.4076 12.517 32.9973 13.6598 34.1694C14.8026 35.3415 16.3526 36 17.9688 36H36.25C37.5429 36 38.7829 35.4732 39.6971 34.5355C40.6114 33.5978 41.125 32.3261 41.125 31V21C41.125 19.6739 40.6114 18.4021 39.6971 17.4644C38.7829 16.5268 37.5429 16 36.25 16H15.5312C15.208 16 14.898 15.8683 14.6695 15.6339C14.4409 15.3994 14.3125 15.0815 14.3125 14.75ZM32.5938 26H35.0312C35.3545 26 35.6645 26.1317 35.893 26.3661C36.1216 26.6005 36.25 26.9185 36.25 27.25C36.25 27.5815 36.1216 27.8994 35.893 28.1339C35.6645 28.3683 35.3545 28.5 35.0312 28.5H32.5938C32.2705 28.5 31.9605 28.3683 31.732 28.1339C31.5034 27.8994 31.375 27.5815 31.375 27.25C31.375 26.9185 31.5034 26.6005 31.732 26.3661C31.9605 26.1317 32.2705 26 32.5938 26Z" fill="black"/>
</svg>
