<svg width="31" height="32" viewBox="0 0 31 32" fill="none" xmlns="http://www.w3.org/2000/svg">
<g clip-path="url(#clip0_55_116)">
<path d="M30.4704 4.63333C30.1415 3.69954 29.6182 2.85151 28.9376 2.14891C28.257 1.44632 27.4354 0.906234 26.5308 0.566664C24.8388 0.00666432 23.3017 0.00666428 20.1758 0.00666428H10.7983C7.69833 0.00666428 6.13542 0.00666428 4.46917 0.539998C3.56324 0.880983 2.74088 1.42311 2.06016 2.1281C1.37944 2.83308 0.856945 3.68374 0.529583 4.62C0 6.35333 0 7.95333 0 11.1533V20.8467C0 24.06 0 25.6467 0.516667 27.38C0.845625 28.3138 1.36883 29.1618 2.04947 29.8644C2.73011 30.567 3.55164 31.1071 4.45625 31.4467C6.13542 31.9933 7.68542 31.9933 10.7854 31.9933H20.1887C23.3017 31.9933 24.8517 31.9933 26.5179 31.46C27.4262 31.1207 28.2511 30.5793 28.9342 29.8742C29.6172 29.1691 30.1417 28.3176 30.4704 27.38C31 25.6467 31 24.0467 31 20.8467V11.18C31 7.96666 31 6.36666 30.4704 4.63333ZM22.5008 10.8067L21.2996 12.0467C21.1825 12.1591 21.0292 12.2227 20.8694 12.2251C20.7095 12.2276 20.5544 12.1687 20.4342 12.06C19.2708 11.0458 17.7977 10.4886 16.275 10.4867C15.0221 10.4867 13.7692 10.9133 13.7692 12.1C13.7692 13.3 15.1125 13.7 16.6625 14.3C19.375 15.2333 21.6225 16.4067 21.6225 19.1533C21.6225 22.14 19.375 24.1933 15.7067 24.42L15.3708 26.02C15.3411 26.167 15.2633 26.299 15.1503 26.3937C15.0374 26.4884 14.8963 26.5401 14.7508 26.54H12.4387L12.3225 26.5267C12.157 26.4883 12.0128 26.3843 11.9209 26.2372C11.8291 26.09 11.797 25.9114 11.8317 25.74L12.1933 24.0467C10.8012 23.6864 9.52093 22.966 8.47333 21.9533V21.94C8.41553 21.8805 8.36967 21.8099 8.33838 21.7321C8.30709 21.6543 8.29098 21.5709 8.29098 21.4867C8.29098 21.4024 8.30709 21.319 8.33838 21.2412C8.36967 21.1634 8.41553 21.0928 8.47333 21.0333L9.765 19.74C9.88229 19.6266 10.037 19.5635 10.1977 19.5635C10.3584 19.5635 10.5131 19.6266 10.6304 19.74C11.8058 20.8867 13.3817 21.5267 15.0092 21.5C16.6883 21.5 17.8121 20.7667 17.8121 19.6067C17.8121 18.4467 16.6754 18.14 14.5312 17.3133C12.2579 16.4733 10.1008 15.2867 10.1008 12.5133C10.1008 9.28666 12.6971 7.71333 15.7712 7.56666L16.0942 5.92666C16.1242 5.78091 16.2026 5.65055 16.3158 5.55805C16.4289 5.46556 16.5698 5.41674 16.7142 5.42H19.0133L19.1425 5.43333C19.4783 5.51333 19.6979 5.84666 19.6204 6.19333L19.2717 8.02C20.4342 8.42 21.5321 9.04666 22.475 9.87333L22.5008 9.9C22.7463 10.1667 22.7463 10.5667 22.5008 10.8067Z" fill="black"/>
</g>
<defs>
<clipPath id="clip0_55_116">
<rect width="31" height="32" fill="white"/>
</clipPath>
</defs>
</svg>
