<svg width="32" height="32" viewBox="0 0 32 32" fill="none" xmlns="http://www.w3.org/2000/svg">
<g clip-path="url(#clip0_8_43)">
<path fill-rule="evenodd" clip-rule="evenodd" d="M9.88798 4C9.52092 4.84105 9.33206 5.74901 9.33331 6.66667C9.33331 7.37391 9.61426 8.05219 10.1144 8.55229C10.6145 9.05238 11.2927 9.33334 12 9.33334H20C20.7072 9.33334 21.3855 9.05238 21.8856 8.55229C22.3857 8.05219 22.6666 7.37391 22.6666 6.66667C22.6666 5.71867 22.4693 4.816 22.112 4H24C24.7072 4 25.3855 4.28095 25.8856 4.78105C26.3857 5.28115 26.6666 5.95942 26.6666 6.66667V26.6667C26.6666 27.3739 26.3857 28.0522 25.8856 28.5523C25.3855 29.0524 24.7072 29.3333 24 29.3333H7.99998C7.29274 29.3333 6.61446 29.0524 6.11436 28.5523C5.61426 28.0522 5.33331 27.3739 5.33331 26.6667V6.66667C5.33331 5.95942 5.61426 5.28115 6.11436 4.78105C6.61446 4.28095 7.29274 4 7.99998 4H9.88798ZM16 18.6667H12C11.6464 18.6667 11.3072 18.8071 11.0572 19.0572C10.8071 19.3072 10.6666 19.6464 10.6666 20C10.6666 20.3536 10.8071 20.6928 11.0572 20.9428C11.3072 21.1929 11.6464 21.3333 12 21.3333H16C16.3536 21.3333 16.6927 21.1929 16.9428 20.9428C17.1928 20.6928 17.3333 20.3536 17.3333 20C17.3333 19.6464 17.1928 19.3072 16.9428 19.0572C16.6927 18.8071 16.3536 18.6667 16 18.6667ZM20 13.3333H12C11.6601 13.3337 11.3333 13.4638 11.0862 13.6971C10.839 13.9304 10.6903 14.2493 10.6704 14.5885C10.6505 14.9278 10.7609 15.2618 10.979 15.5224C11.1971 15.783 11.5065 15.9505 11.844 15.9907L12 16H20C20.3536 16 20.6927 15.8595 20.9428 15.6095C21.1928 15.3594 21.3333 15.0203 21.3333 14.6667C21.3333 14.313 21.1928 13.9739 20.9428 13.7239C20.6927 13.4738 20.3536 13.3333 20 13.3333ZM16 2.66667C16.5629 2.66584 17.1196 2.78423 17.6334 3.01404C18.1473 3.24385 18.6067 3.57987 18.9813 4C19.552 4.63734 19.92 5.45733 19.988 6.36267L20 6.66667H12C12 5.7 12.3426 4.81334 12.9133 4.12267L13.0186 4C13.752 3.18134 14.816 2.66667 16 2.66667Z" fill="#F8F8F8"/>
</g>
<defs>
<clipPath id="clip0_8_43">
<rect width="32" height="32" fill="white"/>
</clipPath>
</defs>
</svg>
