<svg width="32" height="32" viewBox="0 0 32 32" fill="none" xmlns="http://www.w3.org/2000/svg">
<g clip-path="url(#clip0_50_362)">
<path fill-rule="evenodd" clip-rule="evenodd" d="M9.88792 4C9.52086 4.84105 9.332 5.74901 9.33325 6.66667C9.33325 7.37391 9.6142 8.05219 10.1143 8.55229C10.6144 9.05238 11.2927 9.33334 11.9999 9.33334H19.9999C20.7072 9.33334 21.3854 9.05238 21.8855 8.55229C22.3856 8.05219 22.6666 7.37391 22.6666 6.66667C22.6666 5.71867 22.4693 4.816 22.1119 4H23.9999C24.7072 4 25.3854 4.28095 25.8855 4.78105C26.3856 5.28115 26.6666 5.95942 26.6666 6.66667V26.6667C26.6666 27.3739 26.3856 28.0522 25.8855 28.5523C25.3854 29.0524 24.7072 29.3333 23.9999 29.3333H7.99992C7.29267 29.3333 6.6144 29.0524 6.1143 28.5523C5.6142 28.0522 5.33325 27.3739 5.33325 26.6667V6.66667C5.33325 5.95942 5.6142 5.28115 6.1143 4.78105C6.6144 4.28095 7.29267 4 7.99992 4H9.88792ZM15.9999 18.6667H11.9999C11.6463 18.6667 11.3072 18.8071 11.0571 19.0572C10.8071 19.3072 10.6666 19.6464 10.6666 20C10.6666 20.3536 10.8071 20.6928 11.0571 20.9428C11.3072 21.1929 11.6463 21.3333 11.9999 21.3333H15.9999C16.3535 21.3333 16.6927 21.1929 16.9427 20.9428C17.1928 20.6928 17.3333 20.3536 17.3333 20C17.3333 19.6464 17.1928 19.3072 16.9427 19.0572C16.6927 18.8071 16.3535 18.6667 15.9999 18.6667ZM19.9999 13.3333H11.9999C11.6601 13.3337 11.3332 13.4638 11.0861 13.6971C10.839 13.9304 10.6903 14.2493 10.6704 14.5885C10.6504 14.9278 10.7608 15.2618 10.9789 15.5224C11.1971 15.783 11.5065 15.9505 11.8439 15.9907L11.9999 16H19.9999C20.3535 16 20.6927 15.8595 20.9427 15.6095C21.1928 15.3594 21.3333 15.0203 21.3333 14.6667C21.3333 14.313 21.1928 13.9739 20.9427 13.7239C20.6927 13.4738 20.3535 13.3333 19.9999 13.3333ZM15.9999 2.66667C16.5628 2.66584 17.1195 2.78423 17.6334 3.01404C18.1472 3.24385 18.6066 3.57987 18.9813 4C19.5519 4.63734 19.9199 5.45733 19.9879 6.36267L19.9999 6.66667H11.9999C11.9999 5.7 12.3426 4.81334 12.9133 4.12267L13.0186 4C13.7519 3.18134 14.8159 2.66667 15.9999 2.66667Z" fill="black"/>
</g>
<defs>
<clipPath id="clip0_50_362">
<rect width="32" height="32" fill="white"/>
</clipPath>
</defs>
</svg>
