<svg width="22" height="16" viewBox="0 0 22 16" fill="none" xmlns="http://www.w3.org/2000/svg">
<path d="M11 10.75C12.5188 10.75 13.75 9.51878 13.75 8C13.75 6.48122 12.5188 5.25 11 5.25C9.48122 5.25 8.25 6.48122 8.25 8C8.25 9.51878 9.48122 10.75 11 10.75Z" fill="#AAAAAA"/>
<path d="M21.2714 7.76625C20.4628 5.67463 19.0591 3.8658 17.2336 2.56331C15.4082 1.26082 13.2411 0.521769 11.0002 0.4375C8.7593 0.521769 6.59221 1.26082 4.76677 2.56331C2.94133 3.8658 1.53756 5.67463 0.728946 7.76625C0.674336 7.9173 0.674336 8.0827 0.728946 8.23375C1.53756 10.3254 2.94133 12.1342 4.76677 13.4367C6.59221 14.7392 8.7593 15.4782 11.0002 15.5625C13.2411 15.4782 15.4082 14.7392 17.2336 13.4367C19.0591 12.1342 20.4628 10.3254 21.2714 8.23375C21.3261 8.0827 21.3261 7.9173 21.2714 7.76625ZM11.0002 12.4688C10.1164 12.4688 9.25237 12.2067 8.51749 11.7156C7.78261 11.2246 7.20984 10.5267 6.87161 9.71012C6.53338 8.89356 6.44488 7.99504 6.61731 7.12819C6.78974 6.26134 7.21535 5.46508 7.84031 4.84012C8.46528 4.21515 9.26153 3.78954 10.1284 3.61712C10.9952 3.44469 11.8938 3.53318 12.7103 3.87141C13.5269 4.20964 14.2248 4.78241 14.7158 5.5173C15.2069 6.25218 15.4689 7.11616 15.4689 8C15.4671 9.18463 14.9957 10.3202 14.1581 11.1579C13.3204 11.9955 12.1848 12.4669 11.0002 12.4688Z" fill="#AAAAAA"/>
</svg>
